<svg class=" z-0 h-full w-full pointer-events-none absolute " width="100%" height="100%" viewBox="0 0 696 316" fill="none" xmlns="http://www.w3.org/2000/svg"><path d="M-380 -189C-380 -189 -312 216 152 343C616 470 684 875 684 875M-373 -197C-373 -197 -305 208 159 335C623 462 691 867 691 867M-366 -205C-366 -205 -298 200 166 327C630 454 698 859 698 859M-359 -213C-359 -213 -291 192 173 319C637 446 705 851 705 851M-352 -221C-352 -221 -284 184 180 311C644 438 712 843 712 843M-345 -229C-345 -229 -277 176 187 303C651 430 719 835 719 835M-338 -237C-338 -237 -270 168 194 295C658 422 726 827 726 827M-331 -245C-331 -245 -263 160 201 287C665 414 733 819 733 819M-324 -253C-324 -253 -256 152 208 279C672 406 740 811 740 811M-317 -261C-317 -261 -249 144 215 271C679 398 747 803 747 803M-310 -269C-310 -269 -242 136 222 263C686 390 754 795 754 795M-303 -277C-303 -277 -235 128 229 255C693 382 761 787 761 787M-296 -285C-296 -285 -228 120 236 247C700 374 768 779 768 779M-289 -293C-289 -293 -221 112 243 239C707 366 775 771 775 771M-282 -301C-282 -301 -214 104 250 231C714 358 782 763 782 763M-275 -309C-275 -309 -207 96 257 223C721 350 789 755 789 755M-268 -317C-268 -317 -200 88 264 215C728 342 796 747 796 747M-261 -325C-261 -325 -193 80 271 207C735 334 803 739 803 739M-254 -333C-254 -333 -186 72 278 199C742 326 810 731 810 731M-247 -341C-247 -341 -179 64 285 191C749 318 817 723 817 723M-240 -349C-240 -349 -172 56 292 183C756 310 824 715 824 715M-233 -357C-233 -357 -165 48 299 175C763 302 831 707 831 707M-226 -365C-226 -365 -158 40 306 167C770 294 838 699 838 699M-219 -373C-219 -373 -151 32 313 159C777 286 845 691 845 691M-212 -381C-212 -381 -144 24 320 151C784 278 852 683 852 683M-205 -389C-205 -389 -137 16 327 143C791 270 859 675 859 675M-198 -397C-198 -397 -130 8 334 135C798 262 866 667 866 667M-191 -405C-191 -405 -123 0 341 127C805 254 873 659 873 659M-184 -413C-184 -413 -116 -8 348 119C812 246 880 651 880 651M-177 -421C-177 -421 -109 -16 355 111C819 238 887 643 887 643M-170 -429C-170 -429 -102 -24 362 103C826 230 894 635 894 635M-163 -437C-163 -437 -95 -32 369 95C833 222 901 627 901 627M-156 -445C-156 -445 -88 -40 376 87C840 214 908 619 908 619M-149 -453C-149 -453 -81 -48 383 79C847 206 915 611 915 611M-142 -461C-142 -461 -74 -56 390 71C854 198 922 603 922 603M-135 -469C-135 -469 -67 -64 397 63C861 190 929 595 929 595M-128 -477C-128 -477 -60 -72 404 55C868 182 936 587 936 587M-121 -485C-121 -485 -53 -80 411 47C875 174 943 579 943 579M-114 -493C-114 -493 -46 -88 418 39C882 166 950 571 950 571M-107 -501C-107 -501 -39 -96 425 31C889 158 957 563 957 563M-100 -509C-100 -509 -32 -104 432 23C896 150 964 555 964 555M-93 -517C-93 -517 -25 -112 439 15C903 142 971 547 971 547M-86 -525C-86 -525 -18 -120 446 7C910 134 978 539 978 539M-79 -533C-79 -533 -11 -128 453 -1C917 126 985 531 985 531M-72 -541C-72 -541 -4 -136 460 -9C924 118 992 523 992 523M-65 -549C-65 -549 3 -144 467 -17C931 110 999 515 999 515M-58 -557C-58 -557 10 -152 474 -25C938 102 1006 507 1006 507M-51 -565C-51 -565 17 -160 481 -33C945 94 1013 499 1013 499M-44 -573C-44 -573 24 -168 488 -41C952 86 1020 491 1020 491M-37 -581C-37 -581 31 -176 495 -49C959 78 1027 483 1027 483M-30 -589C-30 -589 38 -184 502 -57C966 70 1034 475 1034 475M-23 -597C-23 -597 45 -192 509 -65C973 62 1041 467 1041 467M-16 -605C-16 -605 52 -200 516 -73C980 54 1048 459 1048 459M-9 -613C-9 -613 59 -208 523 -81C987 46 1055 451 1055 451M-2 -621C-2 -621 66 -216 530 -89C994 38 1062 443 1062 443M5 -629C5 -629 73 -224 537 -97C1001 30 1069 435 1069 435M12 -637C12 -637 80 -232 544 -105C1008 22 1076 427 1076 427M19 -645C19 -645 87 -240 551 -113C1015 14 1083 419 1083 419" stroke="url(#paint0_radial_242_278)" stroke-opacity="0.05" stroke-width="0.5"></path><path d="M-380 -189C-380 -189 -312 216 152 343C616 470 684 875 684 875" stroke="url(#linearGradient-0)" stroke-opacity="0.4" stroke-width="0.5"></path><path d="M-373 -197C-373 -197 -305 208 159 335C623 462 691 867 691 867" stroke="url(#linearGradient-1)" stroke-opacity="0.4" stroke-width="0.5"></path><path d="M-366 -205C-366 -205 -298 200 166 327C630 454 698 859 698 859" stroke="url(#linearGradient-2)" stroke-opacity="0.4" stroke-width="0.5"></path><path d="M-359 -213C-359 -213 -291 192 173 319C637 446 705 851 705 851" stroke="url(#linearGradient-3)" stroke-opacity="0.4" stroke-width="0.5"></path><path d="M-352 -221C-352 -221 -284 184 180 311C644 438 712 843 712 843" stroke="url(#linearGradient-4)" stroke-opacity="0.4" stroke-width="0.5"></path><path d="M-345 -229C-345 -229 -277 176 187 303C651 430 719 835 719 835" stroke="url(#linearGradient-5)" stroke-opacity="0.4" stroke-width="0.5"></path><path d="M-338 -237C-338 -237 -270 168 194 295C658 422 726 827 726 827" stroke="url(#linearGradient-6)" stroke-opacity="0.4" stroke-width="0.5"></path><path d="M-331 -245C-331 -245 -263 160 201 287C665 414 733 819 733 819" stroke="url(#linearGradient-7)" stroke-opacity="0.4" stroke-width="0.5"></path><path d="M-324 -253C-324 -253 -256 152 208 279C672 406 740 811 740 811" stroke="url(#linearGradient-8)" stroke-opacity="0.4" stroke-width="0.5"></path><path d="M-317 -261C-317 -261 -249 144 215 271C679 398 747 803 747 803" stroke="url(#linearGradient-9)" stroke-opacity="0.4" stroke-width="0.5"></path><path d="M-310 -269C-310 -269 -242 136 222 263C686 390 754 795 754 795" stroke="url(#linearGradient-10)" stroke-opacity="0.4" stroke-width="0.5"></path><path d="M-303 -277C-303 -277 -235 128 229 255C693 382 761 787 761 787" stroke="url(#linearGradient-11)" stroke-opacity="0.4" stroke-width="0.5"></path><path d="M-296 -285C-296 -285 -228 120 236 247C700 374 768 779 768 779" stroke="url(#linearGradient-12)" stroke-opacity="0.4" stroke-width="0.5"></path><path d="M-289 -293C-289 -293 -221 112 243 239C707 366 775 771 775 771" stroke="url(#linearGradient-13)" stroke-opacity="0.4" stroke-width="0.5"></path><path d="M-282 -301C-282 -301 -214 104 250 231C714 358 782 763 782 763" stroke="url(#linearGradient-14)" stroke-opacity="0.4" stroke-width="0.5"></path><path d="M-275 -309C-275 -309 -207 96 257 223C721 350 789 755 789 755" stroke="url(#linearGradient-15)" stroke-opacity="0.4" stroke-width="0.5"></path><path d="M-268 -317C-268 -317 -200 88 264 215C728 342 796 747 796 747" stroke="url(#linearGradient-16)" stroke-opacity="0.4" stroke-width="0.5"></path><path d="M-261 -325C-261 -325 -193 80 271 207C735 334 803 739 803 739" stroke="url(#linearGradient-17)" stroke-opacity="0.4" stroke-width="0.5"></path><path d="M-254 -333C-254 -333 -186 72 278 199C742 326 810 731 810 731" stroke="url(#linearGradient-18)" stroke-opacity="0.4" stroke-width="0.5"></path><path d="M-247 -341C-247 -341 -179 64 285 191C749 318 817 723 817 723" stroke="url(#linearGradient-19)" stroke-opacity="0.4" stroke-width="0.5"></path><path d="M-240 -349C-240 -349 -172 56 292 183C756 310 824 715 824 715" stroke="url(#linearGradient-20)" stroke-opacity="0.4" stroke-width="0.5"></path><path d="M-233 -357C-233 -357 -165 48 299 175C763 302 831 707 831 707" stroke="url(#linearGradient-21)" stroke-opacity="0.4" stroke-width="0.5"></path><path d="M-226 -365C-226 -365 -158 40 306 167C770 294 838 699 838 699" stroke="url(#linearGradient-22)" stroke-opacity="0.4" stroke-width="0.5"></path><path d="M-219 -373C-219 -373 -151 32 313 159C777 286 845 691 845 691" stroke="url(#linearGradient-23)" stroke-opacity="0.4" stroke-width="0.5"></path><path d="M-212 -381C-212 -381 -144 24 320 151C784 278 852 683 852 683" stroke="url(#linearGradient-24)" stroke-opacity="0.4" stroke-width="0.5"></path><path d="M-205 -389C-205 -389 -137 16 327 143C791 270 859 675 859 675" stroke="url(#linearGradient-25)" stroke-opacity="0.4" stroke-width="0.5"></path><path d="M-198 -397C-198 -397 -130 8 334 135C798 262 866 667 866 667" stroke="url(#linearGradient-26)" stroke-opacity="0.4" stroke-width="0.5"></path><path d="M-191 -405C-191 -405 -123 0 341 127C805 254 873 659 873 659" stroke="url(#linearGradient-27)" stroke-opacity="0.4" stroke-width="0.5"></path><path d="M-184 -413C-184 -413 -116 -8 348 119C812 246 880 651 880 651" stroke="url(#linearGradient-28)" stroke-opacity="0.4" stroke-width="0.5"></path><path d="M-177 -421C-177 -421 -109 -16 355 111C819 238 887 643 887 643" stroke="url(#linearGradient-29)" stroke-opacity="0.4" stroke-width="0.5"></path><path d="M-170 -429C-170 -429 -102 -24 362 103C826 230 894 635 894 635" stroke="url(#linearGradient-30)" stroke-opacity="0.4" stroke-width="0.5"></path><path d="M-163 -437C-163 -437 -95 -32 369 95C833 222 901 627 901 627" stroke="url(#linearGradient-31)" stroke-opacity="0.4" stroke-width="0.5"></path><path d="M-156 -445C-156 -445 -88 -40 376 87C840 214 908 619 908 619" stroke="url(#linearGradient-32)" stroke-opacity="0.4" stroke-width="0.5"></path><path d="M-149 -453C-149 -453 -81 -48 383 79C847 206 915 611 915 611" stroke="url(#linearGradient-33)" stroke-opacity="0.4" stroke-width="0.5"></path><path d="M-142 -461C-142 -461 -74 -56 390 71C854 198 922 603 922 603" stroke="url(#linearGradient-34)" stroke-opacity="0.4" stroke-width="0.5"></path><path d="M-135 -469C-135 -469 -67 -64 397 63C861 190 929 595 929 595" stroke="url(#linearGradient-35)" stroke-opacity="0.4" stroke-width="0.5"></path><path d="M-128 -477C-128 -477 -60 -72 404 55C868 182 936 587 936 587" stroke="url(#linearGradient-36)" stroke-opacity="0.4" stroke-width="0.5"></path><path d="M-121 -485C-121 -485 -53 -80 411 47C875 174 943 579 943 579" stroke="url(#linearGradient-37)" stroke-opacity="0.4" stroke-width="0.5"></path><path d="M-114 -493C-114 -493 -46 -88 418 39C882 166 950 571 950 571" stroke="url(#linearGradient-38)" stroke-opacity="0.4" stroke-width="0.5"></path><path d="M-107 -501C-107 -501 -39 -96 425 31C889 158 957 563 957 563" stroke="url(#linearGradient-39)" stroke-opacity="0.4" stroke-width="0.5"></path><path d="M-100 -509C-100 -509 -32 -104 432 23C896 150 964 555 964 555" stroke="url(#linearGradient-40)" stroke-opacity="0.4" stroke-width="0.5"></path><path d="M-93 -517C-93 -517 -25 -112 439 15C903 142 971 547 971 547" stroke="url(#linearGradient-41)" stroke-opacity="0.4" stroke-width="0.5"></path><path d="M-86 -525C-86 -525 -18 -120 446 7C910 134 978 539 978 539" stroke="url(#linearGradient-42)" stroke-opacity="0.4" stroke-width="0.5"></path><path d="M-79 -533C-79 -533 -11 -128 453 -1C917 126 985 531 985 531" stroke="url(#linearGradient-43)" stroke-opacity="0.4" stroke-width="0.5"></path><path d="M-72 -541C-72 -541 -4 -136 460 -9C924 118 992 523 992 523" stroke="url(#linearGradient-44)" stroke-opacity="0.4" stroke-width="0.5"></path><path d="M-65 -549C-65 -549 3 -144 467 -17C931 110 999 515 999 515" stroke="url(#linearGradient-45)" stroke-opacity="0.4" stroke-width="0.5"></path><path d="M-58 -557C-58 -557 10 -152 474 -25C938 102 1006 507 1006 507" stroke="url(#linearGradient-46)" stroke-opacity="0.4" stroke-width="0.5"></path><path d="M-51 -565C-51 -565 17 -160 481 -33C945 94 1013 499 1013 499" stroke="url(#linearGradient-47)" stroke-opacity="0.4" stroke-width="0.5"></path><path d="M-44 -573C-44 -573 24 -168 488 -41C952 86 1020 491 1020 491" stroke="url(#linearGradient-48)" stroke-opacity="0.4" stroke-width="0.5"></path><path d="M-37 -581C-37 -581 31 -176 495 -49C959 78 1027 483 1027 483" stroke="url(#linearGradient-49)" stroke-opacity="0.4" stroke-width="0.5"></path><defs><linearGradient id="linearGradient-0" x1="78.6395%" x2="74.70753%" y1="78.6395%" y2="78.30505%"><stop stop-color="#18CCFC" stop-opacity="0"></stop><stop stop-color="#18CCFC"></stop><stop offset="32.5%" stop-color="#6344F5"></stop><stop offset="100%" stop-color="#AE48FF" stop-opacity="0"></stop></linearGradient><linearGradient id="linearGradient-1" x1="96.62989%" x2="91.79839%" y1="96.62989%" y2="93.76569%"><stop stop-color="#18CCFC" stop-opacity="0"></stop><stop stop-color="#18CCFC"></stop><stop offset="32.5%" stop-color="#6344F5"></stop><stop offset="100%" stop-color="#AE48FF" stop-opacity="0"></stop></linearGradient><linearGradient id="linearGradient-2" x1="96.06449%" x2="91.26127%" y1="96.06449%" y2="89.55515%"><stop stop-color="#18CCFC" stop-opacity="0"></stop><stop stop-color="#18CCFC"></stop><stop offset="32.5%" stop-color="#6344F5"></stop><stop offset="100%" stop-color="#AE48FF" stop-opacity="0"></stop></linearGradient><linearGradient id="linearGradient-3" x1="97.66321%" x2="92.78005%" y1="97.66321%" y2="91.23361%"><stop stop-color="#18CCFC" stop-opacity="0"></stop><stop stop-color="#18CCFC"></stop><stop offset="32.5%" stop-color="#6344F5"></stop><stop offset="100%" stop-color="#AE48FF" stop-opacity="0"></stop></linearGradient><linearGradient id="linearGradient-4" x1="0.98167%" x2="0.93259%" y1="0.98167%" y2="0.97548%"><stop stop-color="#18CCFC" stop-opacity="0"></stop><stop stop-color="#18CCFC"></stop><stop offset="32.5%" stop-color="#6344F5"></stop><stop offset="100%" stop-color="#AE48FF" stop-opacity="0"></stop></linearGradient><linearGradient id="linearGradient-5" x1="34.86985%" x2="33.12636%" y1="34.86985%" y2="34.28223%"><stop stop-color="#18CCFC" stop-opacity="0"></stop><stop stop-color="#18CCFC"></stop><stop offset="32.5%" stop-color="#6344F5"></stop><stop offset="100%" stop-color="#AE48FF" stop-opacity="0"></stop></linearGradient><linearGradient id="linearGradient-6" x1="76.96383%" x2="73.11564%" y1="76.96383%" y2="77.6108%"><stop stop-color="#18CCFC" stop-opacity="0"></stop><stop stop-color="#18CCFC"></stop><stop offset="32.5%" stop-color="#6344F5"></stop><stop offset="100%" stop-color="#AE48FF" stop-opacity="0"></stop></linearGradient><linearGradient id="linearGradient-7" x1="80.39232%" x2="76.37271%" y1="80.39232%" y2="79.72463%"><stop stop-color="#18CCFC" stop-opacity="0"></stop><stop stop-color="#18CCFC"></stop><stop offset="32.5%" stop-color="#6344F5"></stop><stop offset="100%" stop-color="#AE48FF" stop-opacity="0"></stop></linearGradient><linearGradient id="linearGradient-8" x1="79.24959%" x2="75.28711%" y1="79.24959%" y2="79.52508%"><stop stop-color="#18CCFC" stop-opacity="0"></stop><stop stop-color="#18CCFC"></stop><stop offset="32.5%" stop-color="#6344F5"></stop><stop offset="100%" stop-color="#AE48FF" stop-opacity="0"></stop></linearGradient><linearGradient id="linearGradient-9" x1="33.40281%" x2="31.73267%" y1="33.40281%" y2="33.46976%"><stop stop-color="#18CCFC" stop-opacity="0"></stop><stop stop-color="#18CCFC"></stop><stop offset="32.5%" stop-color="#6344F5"></stop><stop offset="100%" stop-color="#AE48FF" stop-opacity="0"></stop></linearGradient><linearGradient id="linearGradient-10" x1="73.23469%" x2="69.57296%" y1="73.23469%" y2="69.92511%"><stop stop-color="#18CCFC" stop-opacity="0"></stop><stop stop-color="#18CCFC"></stop><stop offset="32.5%" stop-color="#6344F5"></stop><stop offset="100%" stop-color="#AE48FF" stop-opacity="0"></stop></linearGradient><linearGradient id="linearGradient-11" x1="36.98769%" x2="35.1383%" y1="36.98769%" y2="35.60552%"><stop stop-color="#18CCFC" stop-opacity="0"></stop><stop stop-color="#18CCFC"></stop><stop offset="32.5%" stop-color="#6344F5"></stop><stop offset="100%" stop-color="#AE48FF" stop-opacity="0"></stop></linearGradient><linearGradient id="linearGradient-12" x1="98.93627%" x2="93.98945%" y1="98.93627%" y2="95.04871%"><stop stop-color="#18CCFC" stop-opacity="0"></stop><stop stop-color="#18CCFC"></stop><stop offset="32.5%" stop-color="#6344F5"></stop><stop offset="100%" stop-color="#AE48FF" stop-opacity="0"></stop></linearGradient><linearGradient id="linearGradient-13" x1="44.48024%" x2="42.25622%" y1="44.48024%" y2="43.30222%"><stop stop-color="#18CCFC" stop-opacity="0"></stop><stop stop-color="#18CCFC"></stop><stop offset="32.5%" stop-color="#6344F5"></stop><stop offset="100%" stop-color="#AE48FF" stop-opacity="0"></stop></linearGradient><linearGradient id="linearGradient-14" x1="78.76199%" x2="74.82389%" y1="78.76199%" y2="79.28804%"><stop stop-color="#18CCFC" stop-opacity="0"></stop><stop stop-color="#18CCFC"></stop><stop offset="32.5%" stop-color="#6344F5"></stop><stop offset="100%" stop-color="#AE48FF" stop-opacity="0"></stop></linearGradient><linearGradient id="linearGradient-15" x1="96.18682%" x2="91.37748%" y1="96.18682%" y2="96.55453%"><stop stop-color="#18CCFC" stop-opacity="0"></stop><stop stop-color="#18CCFC"></stop><stop offset="32.5%" stop-color="#6344F5"></stop><stop offset="100%" stop-color="#AE48FF" stop-opacity="0"></stop></linearGradient><linearGradient id="linearGradient-16" x1="65.48066%" x2="62.20663%" y1="65.48066%" y2="64.29216%"><stop stop-color="#18CCFC" stop-opacity="0"></stop><stop stop-color="#18CCFC"></stop><stop offset="32.5%" stop-color="#6344F5"></stop><stop offset="100%" stop-color="#AE48FF" stop-opacity="0"></stop></linearGradient><linearGradient id="linearGradient-17" x1="2.50939%" x2="2.38392%" y1="2.50939%" y2="2.42885%"><stop stop-color="#18CCFC" stop-opacity="0"></stop><stop stop-color="#18CCFC"></stop><stop offset="32.5%" stop-color="#6344F5"></stop><stop offset="100%" stop-color="#AE48FF" stop-opacity="0"></stop></linearGradient><linearGradient id="linearGradient-18" x1="29.36131%" x2="27.89324%" y1="29.36131%" y2="29.43764%"><stop stop-color="#18CCFC" stop-opacity="0"></stop><stop stop-color="#18CCFC"></stop><stop offset="32.5%" stop-color="#6344F5"></stop><stop offset="100%" stop-color="#AE48FF" stop-opacity="0"></stop></linearGradient><linearGradient id="linearGradient-19" x1="98.27485%" x2="93.36111%" y1="98.27485%" y2="91.51484%"><stop stop-color="#18CCFC" stop-opacity="0"></stop><stop stop-color="#18CCFC"></stop><stop offset="32.5%" stop-color="#6344F5"></stop><stop offset="100%" stop-color="#AE48FF" stop-opacity="0"></stop></linearGradient><linearGradient id="linearGradient-20" x1="58.13423%" x2="55.22752%" y1="58.13423%" y2="57.88384%"><stop stop-color="#18CCFC" stop-opacity="0"></stop><stop stop-color="#18CCFC"></stop><stop offset="32.5%" stop-color="#6344F5"></stop><stop offset="100%" stop-color="#AE48FF" stop-opacity="0"></stop></linearGradient><linearGradient id="linearGradient-21" x1="37.41408%" x2="35.54338%" y1="37.41408%" y2="37.74248%"><stop stop-color="#18CCFC" stop-opacity="0"></stop><stop stop-color="#18CCFC"></stop><stop offset="32.5%" stop-color="#6344F5"></stop><stop offset="100%" stop-color="#AE48FF" stop-opacity="0"></stop></linearGradient><linearGradient id="linearGradient-22" x1="29.29394%" x2="27.82924%" y1="29.29394%" y2="28.29829%"><stop stop-color="#18CCFC" stop-opacity="0"></stop><stop stop-color="#18CCFC"></stop><stop offset="32.5%" stop-color="#6344F5"></stop><stop offset="100%" stop-color="#AE48FF" stop-opacity="0"></stop></linearGradient><linearGradient id="linearGradient-23" x1="64.56781%" x2="61.33942%" y1="64.56781%" y2="61.89815%"><stop stop-color="#18CCFC" stop-opacity="0"></stop><stop stop-color="#18CCFC"></stop><stop offset="32.5%" stop-color="#6344F5"></stop><stop offset="100%" stop-color="#AE48FF" stop-opacity="0"></stop></linearGradient><linearGradient id="linearGradient-24" x1="97.15501%" x2="92.29726%" y1="97.15501%" y2="97.56768%"><stop stop-color="#18CCFC" stop-opacity="0"></stop><stop stop-color="#18CCFC"></stop><stop offset="32.5%" stop-color="#6344F5"></stop><stop offset="100%" stop-color="#AE48FF" stop-opacity="0"></stop></linearGradient><linearGradient id="linearGradient-25" x1="0.0891%" x2="0.08464%" y1="0.0891%" y2="0.0881%"><stop stop-color="#18CCFC" stop-opacity="0"></stop><stop stop-color="#18CCFC"></stop><stop offset="32.5%" stop-color="#6344F5"></stop><stop offset="100%" stop-color="#AE48FF" stop-opacity="0"></stop></linearGradient><linearGradient id="linearGradient-26" x1="2.24073%" x2="2.12869%" y1="2.24073%" y2="2.18204%"><stop stop-color="#18CCFC" stop-opacity="0"></stop><stop stop-color="#18CCFC"></stop><stop offset="32.5%" stop-color="#6344F5"></stop><stop offset="100%" stop-color="#AE48FF" stop-opacity="0"></stop></linearGradient><linearGradient id="linearGradient-27" x1="23.66693%" x2="22.48358%" y1="23.66693%" y2="22.9685%"><stop stop-color="#18CCFC" stop-opacity="0"></stop><stop stop-color="#18CCFC"></stop><stop offset="32.5%" stop-color="#6344F5"></stop><stop offset="100%" stop-color="#AE48FF" stop-opacity="0"></stop></linearGradient><linearGradient id="linearGradient-28" x1="85.53927%" x2="81.2623%" y1="85.53927%" y2="86.39052%"><stop stop-color="#18CCFC" stop-opacity="0"></stop><stop stop-color="#18CCFC"></stop><stop offset="32.5%" stop-color="#6344F5"></stop><stop offset="100%" stop-color="#AE48FF" stop-opacity="0"></stop></linearGradient><linearGradient id="linearGradient-29" x1="92.13231%" x2="87.52569%" y1="92.13231%" y2="88.82117%"><stop stop-color="#18CCFC" stop-opacity="0"></stop><stop stop-color="#18CCFC"></stop><stop offset="32.5%" stop-color="#6344F5"></stop><stop offset="100%" stop-color="#AE48FF" stop-opacity="0"></stop></linearGradient><linearGradient id="linearGradient-30" x1="99.74335%" x2="94.75619%" y1="99.74335%" y2="96.02369%"><stop stop-color="#18CCFC" stop-opacity="0"></stop><stop stop-color="#18CCFC"></stop><stop offset="32.5%" stop-color="#6344F5"></stop><stop offset="100%" stop-color="#AE48FF" stop-opacity="0"></stop></linearGradient><linearGradient id="linearGradient-31" x1="92.58581%" x2="87.95652%" y1="92.58581%" y2="92.09529%"><stop stop-color="#18CCFC" stop-opacity="0"></stop><stop stop-color="#18CCFC"></stop><stop offset="32.5%" stop-color="#6344F5"></stop><stop offset="100%" stop-color="#AE48FF" stop-opacity="0"></stop></linearGradient><linearGradient id="linearGradient-32" x1="67.91231%" x2="64.51669%" y1="67.91231%" y2="63.61808%"><stop stop-color="#18CCFC" stop-opacity="0"></stop><stop stop-color="#18CCFC"></stop><stop offset="32.5%" stop-color="#6344F5"></stop><stop offset="100%" stop-color="#AE48FF" stop-opacity="0"></stop></linearGradient><linearGradient id="linearGradient-33" x1="77.8998%" x2="74.00481%" y1="77.8998%" y2="74.44185%"><stop stop-color="#18CCFC" stop-opacity="0"></stop><stop stop-color="#18CCFC"></stop><stop offset="32.5%" stop-color="#6344F5"></stop><stop offset="100%" stop-color="#AE48FF" stop-opacity="0"></stop></linearGradient><linearGradient id="linearGradient-34" x1="65.90029%" x2="62.60528%" y1="65.90029%" y2="65.34326%"><stop stop-color="#18CCFC" stop-opacity="0"></stop><stop stop-color="#18CCFC"></stop><stop offset="32.5%" stop-color="#6344F5"></stop><stop offset="100%" stop-color="#AE48FF" stop-opacity="0"></stop></linearGradient><linearGradient id="linearGradient-35" x1="96.77202%" x2="91.93342%" y1="96.77202%" y2="90.86995%"><stop stop-color="#18CCFC" stop-opacity="0"></stop><stop stop-color="#18CCFC"></stop><stop offset="32.5%" stop-color="#6344F5"></stop><stop offset="100%" stop-color="#AE48FF" stop-opacity="0"></stop></linearGradient><linearGradient id="linearGradient-36" x1="94.35515%" x2="89.63739%" y1="94.35515%" y2="92.12835%"><stop stop-color="#18CCFC" stop-opacity="0"></stop><stop stop-color="#18CCFC"></stop><stop offset="32.5%" stop-color="#6344F5"></stop><stop offset="100%" stop-color="#AE48FF" stop-opacity="0"></stop></linearGradient><linearGradient id="linearGradient-37" x1="46.88899%" x2="44.54454%" y1="46.88899%" y2="45.65183%"><stop stop-color="#18CCFC" stop-opacity="0"></stop><stop stop-color="#18CCFC"></stop><stop offset="32.5%" stop-color="#6344F5"></stop><stop offset="100%" stop-color="#AE48FF" stop-opacity="0"></stop></linearGradient><linearGradient id="linearGradient-38" x1="62.30117%" x2="59.18611%" y1="62.30117%" y2="59.71818%"><stop stop-color="#18CCFC" stop-opacity="0"></stop><stop stop-color="#18CCFC"></stop><stop offset="32.5%" stop-color="#6344F5"></stop><stop offset="100%" stop-color="#AE48FF" stop-opacity="0"></stop></linearGradient><linearGradient id="linearGradient-39" x1="96.39668%" x2="91.57685%" y1="96.39668%" y2="94.73843%"><stop stop-color="#18CCFC" stop-opacity="0"></stop><stop stop-color="#18CCFC"></stop><stop offset="32.5%" stop-color="#6344F5"></stop><stop offset="100%" stop-color="#AE48FF" stop-opacity="0"></stop></linearGradient><linearGradient id="linearGradient-40" x1="81.33736%" x2="77.27049%" y1="81.33736%" y2="76.60839%"><stop stop-color="#18CCFC" stop-opacity="0"></stop><stop stop-color="#18CCFC"></stop><stop offset="32.5%" stop-color="#6344F5"></stop><stop offset="100%" stop-color="#AE48FF" stop-opacity="0"></stop></linearGradient><linearGradient id="linearGradient-41" x1="55.15542%" x2="52.39764%" y1="55.15542%" y2="53.24545%"><stop stop-color="#18CCFC" stop-opacity="0"></stop><stop stop-color="#18CCFC"></stop><stop offset="32.5%" stop-color="#6344F5"></stop><stop offset="100%" stop-color="#AE48FF" stop-opacity="0"></stop></linearGradient><linearGradient id="linearGradient-42" x1="68.53092%" x2="65.10438%" y1="68.53092%" y2="67.2397%"><stop stop-color="#18CCFC" stop-opacity="0"></stop><stop stop-color="#18CCFC"></stop><stop offset="32.5%" stop-color="#6344F5"></stop><stop offset="100%" stop-color="#AE48FF" stop-opacity="0"></stop></linearGradient><linearGradient id="linearGradient-43" x1="68.94172%" x2="65.49463%" y1="68.94172%" y2="68.23699%"><stop stop-color="#18CCFC" stop-opacity="0"></stop><stop stop-color="#18CCFC"></stop><stop offset="32.5%" stop-color="#6344F5"></stop><stop offset="100%" stop-color="#AE48FF" stop-opacity="0"></stop></linearGradient><linearGradient id="linearGradient-44" x1="71.64489%" x2="68.06264%" y1="71.64489%" y2="67.45831%"><stop stop-color="#18CCFC" stop-opacity="0"></stop><stop stop-color="#18CCFC"></stop><stop offset="32.5%" stop-color="#6344F5"></stop><stop offset="100%" stop-color="#AE48FF" stop-opacity="0"></stop></linearGradient><linearGradient id="linearGradient-45" x1="91.32235%" x2="86.75624%" y1="91.32235%" y2="85.16408%"><stop stop-color="#18CCFC" stop-opacity="0"></stop><stop stop-color="#18CCFC"></stop><stop offset="32.5%" stop-color="#6344F5"></stop><stop offset="100%" stop-color="#AE48FF" stop-opacity="0"></stop></linearGradient><linearGradient id="linearGradient-46" x1="70.97513%" x2="67.42637%" y1="70.97513%" y2="68.51717%"><stop stop-color="#18CCFC" stop-opacity="0"></stop><stop stop-color="#18CCFC"></stop><stop offset="32.5%" stop-color="#6344F5"></stop><stop offset="100%" stop-color="#AE48FF" stop-opacity="0"></stop></linearGradient><linearGradient id="linearGradient-47" x1="59.79442%" x2="56.8047%" y1="59.79442%" y2="58.95349%"><stop stop-color="#18CCFC" stop-opacity="0"></stop><stop stop-color="#18CCFC"></stop><stop offset="32.5%" stop-color="#6344F5"></stop><stop offset="100%" stop-color="#AE48FF" stop-opacity="0"></stop></linearGradient><linearGradient id="linearGradient-48" x1="87.05485%" x2="82.7021%" y1="87.05485%" y2="85.19733%"><stop stop-color="#18CCFC" stop-opacity="0"></stop><stop stop-color="#18CCFC"></stop><stop offset="32.5%" stop-color="#6344F5"></stop><stop offset="100%" stop-color="#AE48FF" stop-opacity="0"></stop></linearGradient><linearGradient id="linearGradient-49" x1="55.08252%" x2="52.32839%" y1="55.08252%" y2="52.57688%"><stop stop-color="#18CCFC" stop-opacity="0"></stop><stop stop-color="#18CCFC"></stop><stop offset="32.5%" stop-color="#6344F5"></stop><stop offset="100%" stop-color="#AE48FF" stop-opacity="0"></stop></linearGradient><radialGradient id="paint0_radial_242_278" cx="0" cy="0" r="1" gradientUnits="userSpaceOnUse" gradientTransform="translate(352 34) rotate(90) scale(555 1560.62)"><stop offset="0.0666667" stop-color="var(--neutral-300)"></stop><stop offset="0.243243" stop-color="var(--neutral-300)"></stop><stop offset="0.43594" stop-color="white" stop-opacity="0"></stop></radialGradient></defs></svg>