<svg width="1920" height="656" viewBox="0 0 1920 656" fill="none" xmlns="http://www.w3.org/2000/svg">
<g clip-path="url(#clip0_674_13323)">
<rect width="1920" height="656" fill="#0D0F13"/>
<g opacity="0.5">
<line x1="1070.5" y1="25" x2="1070.5" y2="656" stroke="#1F2226"/>
<line x1="1015.5" y1="25" x2="1015.5" y2="656" stroke="#1F2226"/>
<line x1="960.5" y1="25" x2="960.5" y2="656" stroke="#1F2226"/>
<line x1="905.5" y1="25" x2="905.5" y2="656" stroke="#1F2226"/>
<line x1="850.5" y1="25" x2="850.5" y2="656" stroke="#1F2226"/>
<line x1="795.5" y1="25" x2="795.5" y2="656" stroke="#1F2226"/>
<line x1="740.5" y1="25" x2="740.5" y2="656" stroke="#1F2226"/>
<line x1="685.5" y1="25" x2="685.5" y2="656" stroke="#1F2226"/>
<line x1="630.5" y1="25" x2="630.5" y2="656" stroke="#1F2226"/>
<line x1="575.5" y1="25" x2="575.5" y2="656" stroke="#1F2226"/>
<line x1="520.5" y1="25" x2="520.5" y2="656" stroke="#1F2226"/>
<line x1="465.5" y1="25" x2="465.5" y2="656" stroke="#1F2226"/>
<line x1="410.5" y1="25" x2="410.5" y2="656" stroke="#1F2226"/>
<line x1="355.5" y1="25" x2="355.5" y2="656" stroke="#1F2226"/>
<line x1="300.5" y1="25" x2="300.5" y2="656" stroke="#1F2226"/>
<line x1="245.5" y1="25" x2="245.5" y2="656" stroke="#1F2226"/>
<line x1="1125.5" y1="25" x2="1125.5" y2="656" stroke="#1F2226"/>
<line x1="1180.5" y1="25" x2="1180.5" y2="656" stroke="#1F2226"/>
<line x1="1235.5" y1="25" x2="1235.5" y2="656" stroke="#1F2226"/>
<line x1="1290.5" y1="25" x2="1290.5" y2="656" stroke="#1F2226"/>
<line x1="1345.5" y1="25" x2="1345.5" y2="656" stroke="#1F2226"/>
<line x1="1400.5" y1="25" x2="1400.5" y2="656" stroke="#1F2226"/>
<line x1="1455.5" y1="25" x2="1455.5" y2="656" stroke="#1F2226"/>
<line x1="1510.5" y1="25" x2="1510.5" y2="656" stroke="#1F2226"/>
<line x1="1565.5" y1="25" x2="1565.5" y2="656" stroke="#1F2226"/>
<line x1="1620.5" y1="25" x2="1620.5" y2="656" stroke="#1F2226"/>
<line x1="1675.5" y1="25" x2="1675.5" y2="656" stroke="#1F2226"/>
</g>
<g opacity="0.5">
<line x1="102" y1="639.5" x2="1818" y2="639.5" stroke="#1F2226"/>
<line x1="102" y1="584.5" x2="1818" y2="584.5" stroke="#1F2226"/>
<line x1="102" y1="529.5" x2="1818" y2="529.5" stroke="#1F2226"/>
<line x1="102" y1="474.5" x2="1818" y2="474.5" stroke="#1F2226"/>
<line x1="102" y1="419.5" x2="1818" y2="419.5" stroke="#1F2226"/>
<line x1="102" y1="364.5" x2="1818" y2="364.5" stroke="#1F2226"/>
<line x1="102" y1="309.5" x2="1818" y2="309.5" stroke="#1F2226"/>
<line x1="102" y1="254.5" x2="1818" y2="254.5" stroke="#1F2226"/>
<line x1="102" y1="199.5" x2="1818" y2="199.5" stroke="#1F2226"/>
<line x1="102" y1="144.5" x2="1818" y2="144.5" stroke="#1F2226"/>
<line x1="102" y1="89.5" x2="1818" y2="89.5" stroke="#1F2226"/>
</g>
<g opacity="0.3">
<g opacity="0.2">
<rect x="355" y="584" width="56" height="56" fill="white" fill-opacity="0.2"/>
<rect x="355.5" y="584.5" width="55" height="55" stroke="white" stroke-opacity="0.5"/>
</g>
<g opacity="0.2">
<rect x="190" y="529" width="56" height="56" fill="white" fill-opacity="0.2"/>
<rect x="190.5" y="529.5" width="55" height="55" stroke="white" stroke-opacity="0.5"/>
</g>
<g opacity="0.2">
<rect x="520" y="584" width="56" height="56" fill="white" fill-opacity="0.2"/>
<rect x="520.5" y="584.5" width="55" height="55" stroke="white" stroke-opacity="0.5"/>
</g>
<g opacity="0.3">
<rect x="575" y="529" width="56" height="56" fill="white" fill-opacity="0.2"/>
<rect x="575.5" y="529.5" width="55" height="55" stroke="white" stroke-opacity="0.5"/>
</g>
<g opacity="0.1">
<rect x="575" y="639" width="56" height="56" fill="white" fill-opacity="0.2"/>
<rect x="575.5" y="639.5" width="55" height="55" stroke="white" stroke-opacity="0.5"/>
</g>
<g opacity="0.1">
<rect x="630" y="639" width="56" height="56" fill="white" fill-opacity="0.2"/>
<rect x="630.5" y="639.5" width="55" height="55" stroke="white" stroke-opacity="0.5"/>
</g>
<g opacity="0.1">
<rect x="630" y="584" width="56" height="56" fill="white" fill-opacity="0.2"/>
<rect x="630.5" y="584.5" width="55" height="55" stroke="white" stroke-opacity="0.5"/>
</g>
<g opacity="0.1">
<rect x="685" y="584" width="56" height="56" fill="white" fill-opacity="0.2"/>
<rect x="685.5" y="584.5" width="55" height="55" stroke="white" stroke-opacity="0.5"/>
</g>
<g opacity="0.1">
<rect x="685" y="529" width="56" height="56" fill="white" fill-opacity="0.2"/>
<rect x="685.5" y="529.5" width="55" height="55" stroke="white" stroke-opacity="0.5"/>
</g>
<g opacity="0.12">
<rect x="685" y="474" width="56" height="56" fill="white" fill-opacity="0.2"/>
<rect x="685.5" y="474.5" width="55" height="55" stroke="white" stroke-opacity="0.5"/>
</g>
<g opacity="0.1">
<rect x="740" y="584" width="56" height="56" fill="white" fill-opacity="0.2"/>
<rect x="740.5" y="584.5" width="55" height="55" stroke="white" stroke-opacity="0.5"/>
</g>
<g opacity="0.15">
<rect x="740" y="529" width="56" height="56" fill="white" fill-opacity="0.2"/>
<rect x="740.5" y="529.5" width="55" height="55" stroke="white" stroke-opacity="0.5"/>
</g>
<g opacity="0.15">
<rect x="850" y="584" width="56" height="56" fill="white" fill-opacity="0.2"/>
<rect x="850.5" y="584.5" width="55" height="55" stroke="white" stroke-opacity="0.5"/>
</g>
<g opacity="0.15">
<rect x="905" y="584" width="56" height="56" fill="white" fill-opacity="0.2"/>
<rect x="905.5" y="584.5" width="55" height="55" stroke="white" stroke-opacity="0.5"/>
</g>
<g opacity="0.15">
<rect x="960" y="529" width="56" height="56" fill="white" fill-opacity="0.2"/>
<rect x="960.5" y="529.5" width="55" height="55" stroke="white" stroke-opacity="0.5"/>
</g>
<g opacity="0.05">
<rect x="850" y="420" width="56" height="56" fill="white" fill-opacity="0.2"/>
<rect x="850.5" y="420.5" width="55" height="55" stroke="white" stroke-opacity="0.5"/>
</g>
<g opacity="0.12">
<rect x="465" y="419" width="56" height="56" fill="white" fill-opacity="0.2"/>
<rect x="465.5" y="419.5" width="55" height="55" stroke="white" stroke-opacity="0.5"/>
</g>
<g opacity="0.12">
<rect x="904" y="364" width="56" height="56" fill="white" fill-opacity="0.2"/>
<rect x="904.5" y="364.5" width="55" height="55" stroke="white" stroke-opacity="0.5"/>
</g>
<g opacity="0.2">
<rect x="1070" y="529" width="56" height="56" fill="white" fill-opacity="0.2"/>
<rect x="1070.5" y="529.5" width="55" height="55" stroke="white" stroke-opacity="0.5"/>
</g>
<g opacity="0.08">
<rect x="1070" y="584" width="56" height="56" fill="white" fill-opacity="0.2"/>
<rect x="1070.5" y="584.5" width="55" height="55" stroke="white" stroke-opacity="0.5"/>
</g>
<g opacity="0.12">
<rect x="1125" y="584" width="56" height="56" fill="white" fill-opacity="0.2"/>
<rect x="1125.5" y="584.5" width="55" height="55" stroke="white" stroke-opacity="0.5"/>
</g>
<g opacity="0.15">
<rect x="1180" y="584" width="56" height="56" fill="white" fill-opacity="0.2"/>
<rect x="1180.5" y="584.5" width="55" height="55" stroke="white" stroke-opacity="0.5"/>
</g>
<g opacity="0.2">
<rect x="1235" y="584" width="56" height="56" fill="white" fill-opacity="0.2"/>
<rect x="1235.5" y="584.5" width="55" height="55" stroke="white" stroke-opacity="0.5"/>
</g>
<g opacity="0.15">
<rect x="1125" y="474" width="56" height="56" fill="white" fill-opacity="0.2"/>
<rect x="1125.5" y="474.5" width="55" height="55" stroke="white" stroke-opacity="0.5"/>
</g>
<g opacity="0.15">
<rect x="1180" y="529" width="56" height="56" fill="white" fill-opacity="0.2"/>
<rect x="1180.5" y="529.5" width="55" height="55" stroke="white" stroke-opacity="0.5"/>
</g>
<g opacity="0.15">
<rect x="1400" y="419" width="56" height="56" fill="white" fill-opacity="0.2"/>
<rect x="1400.5" y="419.5" width="55" height="55" stroke="white" stroke-opacity="0.5"/>
</g>
<g opacity="0.12">
<rect x="1400" y="474" width="56" height="56" fill="white" fill-opacity="0.2"/>
<rect x="1400.5" y="474.5" width="55" height="55" stroke="white" stroke-opacity="0.5"/>
</g>
<g opacity="0.15">
<rect x="1455" y="529" width="56" height="56" fill="white" fill-opacity="0.2"/>
<rect x="1455.5" y="529.5" width="55" height="55" stroke="white" stroke-opacity="0.5"/>
</g>
<g opacity="0.2">
<rect x="1455" y="639" width="56" height="56" fill="white" fill-opacity="0.2"/>
<rect x="1455.5" y="639.5" width="55" height="55" stroke="white" stroke-opacity="0.5"/>
</g>
<g opacity="0.2">
<rect x="1510" y="584" width="56" height="56" fill="white" fill-opacity="0.2"/>
<rect x="1510.5" y="584.5" width="55" height="55" stroke="white" stroke-opacity="0.5"/>
</g>
<g opacity="0.12">
<rect x="1565" y="584" width="56" height="56" fill="white" fill-opacity="0.2"/>
<rect x="1565.5" y="584.5" width="55" height="55" stroke="white" stroke-opacity="0.5"/>
</g>
<g opacity="0.1">
<rect x="1510" y="475" width="56" height="56" fill="white" fill-opacity="0.2"/>
<rect x="1510.5" y="475.5" width="55" height="55" stroke="white" stroke-opacity="0.5"/>
</g>
<g opacity="0.1">
<rect x="1621" y="529" width="56" height="56" fill="white" fill-opacity="0.2"/>
<rect x="1621.5" y="529.5" width="55" height="55" stroke="white" stroke-opacity="0.5"/>
</g>
<g opacity="0.1">
<rect x="1730" y="584" width="56" height="56" fill="white" fill-opacity="0.2"/>
<rect x="1730.5" y="584.5" width="55" height="55" stroke="white" stroke-opacity="0.5"/>
</g>
<g opacity="0.15">
<rect x="1345" y="584" width="56" height="56" fill="white" fill-opacity="0.2"/>
<rect x="1345.5" y="584.5" width="55" height="55" stroke="white" stroke-opacity="0.5"/>
</g>
<g opacity="0.15">
<rect x="1070" y="639" width="56" height="56" fill="white" fill-opacity="0.2"/>
<rect x="1070.5" y="639.5" width="55" height="55" stroke="white" stroke-opacity="0.5"/>
</g>
</g>
<rect y="57" width="544" height="599" fill="url(#paint0_linear_674_13323)"/>
<rect width="544" height="599" transform="matrix(-1 0 0 1 1920 57)" fill="url(#paint1_linear_674_13323)"/>
<rect width="308" height="1920" transform="matrix(-4.37114e-08 1 1 4.37114e-08 0 0)" fill="url(#paint2_linear_674_13323)"/>
</g>
<defs>
<linearGradient id="paint0_linear_674_13323" x1="-7.03747e-07" y1="326" x2="544" y2="326" gradientUnits="userSpaceOnUse">
<stop stop-color="#0D0F13"/>
<stop offset="1" stop-color="#0D0F13" stop-opacity="0"/>
</linearGradient>
<linearGradient id="paint1_linear_674_13323" x1="-7.03747e-07" y1="269" x2="544" y2="269" gradientUnits="userSpaceOnUse">
<stop stop-color="#0D0F13"/>
<stop offset="1" stop-color="#0D0F13" stop-opacity="0"/>
</linearGradient>
<linearGradient id="paint2_linear_674_13323" x1="-3.98445e-07" y1="862.237" x2="308" y2="862.237" gradientUnits="userSpaceOnUse">
<stop stop-color="#0D0E12"/>
<stop offset="1" stop-color="#0D0E12" stop-opacity="0"/>
</linearGradient>
<clipPath id="clip0_674_13323">
<rect width="1920" height="656" fill="white"/>
</clipPath>
</defs>
</svg>
